<!DOCTYPE HTML PUBLIC "-//W3C//DTD HTML 4.0//EN" "http://www.w3.org/TR/REC-html40/strict.dtd">
<html><head><meta name="qrichtext" content="1" /><meta http-equiv="Content-Type" content="text/html; charset=UTF-8" /><style type="text/css">
p, li { white-space: pre-wrap; }
</style></head><body style=" font-family:'DejaVu Sans'; font-size:11pt; font-weight:400; font-style:normal;">
<p style=" margin-top:0px; margin-bottom:0px; margin-left:0px; margin-right:0px; -qt-block-indent:0; text-indent:0px;">Для любых файлов, и даже для загадочных файлов, генерируемых видеокамерой SONY Handycam (имеющих формат MTS), можно посмотреть информацию с помощью опции <span style=" font-family:'DejaVu Sans Mono'; color:#6a0e07;">-i</span>:</p>
<p style="-qt-paragraph-type:empty; margin-top:0px; margin-bottom:0px; margin-left:0px; margin-right:0px; -qt-block-indent:0; text-indent:0px; font-size:10pt;"><br /></p>
<p style=" margin-top:0px; margin-bottom:0px; margin-left:20px; margin-right:0px; -qt-block-indent:0; text-indent:0px;"><span style=" font-family:'DejaVu Sans Mono'; color:#6a0e07;">ffmpeg -i file.MTS</span></p>
<p style=" margin-top:0px; margin-bottom:0px; margin-left:20px; margin-right:0px; -qt-block-indent:0; text-indent:0px;"><span style=" font-family:'DejaVu Sans Mono'; color:#6a0e07;">------------cut--------------</span></p>
<p style=" margin-top:0px; margin-bottom:0px; margin-left:20px; margin-right:0px; -qt-block-indent:0; text-indent:0px;"><span style=" font-family:'DejaVu Sans Mono'; color:#6a0e07;">Seems stream 0 codec frame rate differs from container frame rate: 50.00 (50/1) -&gt; 50.00 (50/1)</span></p>
<p style=" margin-top:0px; margin-bottom:0px; margin-left:20px; margin-right:0px; -qt-block-indent:0; text-indent:0px;"><span style=" font-family:'DejaVu Sans Mono'; color:#6a0e07;">Input #0, mpegts, from '1.MTS':</span></p>
<p style=" margin-top:0px; margin-bottom:0px; margin-left:20px; margin-right:0px; -qt-block-indent:0; text-indent:0px;"><span style=" font-family:'DejaVu Sans Mono'; color:#6a0e07;">  Duration: 00:00:29.67, start: 1.000033, bitrate: 17148 kb/s</span></p>
<p style=" margin-top:0px; margin-bottom:0px; margin-left:20px; margin-right:0px; -qt-block-indent:0; text-indent:0px;"><span style=" font-family:'DejaVu Sans Mono'; color:#6a0e07;">  Program 1 </span></p>
<p style=" margin-top:0px; margin-bottom:0px; margin-left:20px; margin-right:0px; -qt-block-indent:0; text-indent:0px;"><span style=" font-family:'DejaVu Sans Mono'; color:#6a0e07;">    Stream #0.0[0x1011]: Video: h264 (High), yuv420p, 1920x1080 [PAR 1:1 DAR 16:9], 50 fps, 50 tbr, 90k tbn, 50 tbc</span></p>
<p style=" margin-top:0px; margin-bottom:0px; margin-left:20px; margin-right:0px; -qt-block-indent:0; text-indent:0px;"><span style=" font-family:'DejaVu Sans Mono'; color:#6a0e07;">    Stream #0.1[0x1100]: Audio: ac3, 48000 Hz, 5.1, s16, 448 kb/s</span></p>
<p style=" margin-top:0px; margin-bottom:0px; margin-left:20px; margin-right:0px; -qt-block-indent:0; text-indent:0px;"><span style=" font-family:'DejaVu Sans Mono'; color:#6a0e07;">    Stream #0.2[0x1200]: Subtitle: pgssub</span></p>
<p style=" margin-top:0px; margin-bottom:0px; margin-left:20px; margin-right:0px; -qt-block-indent:0; text-indent:0px;"><span style=" font-family:'DejaVu Sans Mono'; color:#6a0e07;">At least one output file must be specified</span></p>
<p style="-qt-paragraph-type:empty; margin-top:0px; margin-bottom:0px; margin-left:0px; margin-right:0px; -qt-block-indent:0; text-indent:0px; font-family:'DejaVu Sans Mono'; color:#6a0e07;"><br /></p>
<p style=" margin-top:0px; margin-bottom:0px; margin-left:0px; margin-right:0px; -qt-block-indent:0; text-indent:0px;">Как действует опция <span style=" font-family:'DejaVu Sans Mono'; color:#6a0e07;">-i</span>? На самом деле это не опция отображания информации о файле! Это опция говорит, что в качестве входного файла, над которым нужно произвести какие-то действия, нужно использовать файл <span style=" font-family:'DejaVu Sans Mono'; color:#6a0e07;">file.MTS</span>. И больше никаких опций нет. То есть, отсутствие каких-либо опций, кроме <span style=" font-family:'DejaVu Sans Mono'; color:#6a0e07;">-i</span>, заставляет ffmpeg показать информацию о входном файле.</p>
<p style="-qt-paragraph-type:empty; margin-top:0px; margin-bottom:0px; margin-left:0px; margin-right:0px; -qt-block-indent:0; text-indent:0px;"><br /></p>
<p style=" margin-top:0px; margin-bottom:0px; margin-left:0px; margin-right:0px; -qt-block-indent:0; text-indent:0px;">Здесь видно, что отображается информация о трех потоках. 0.0 - это видео, 0.1 - это аудио, 0.2 - это субтитры.</p>
<p style="-qt-paragraph-type:empty; margin-top:0px; margin-bottom:0px; margin-left:0px; margin-right:0px; -qt-block-indent:0; text-indent:0px;"><br /></p>
<p style=" margin-top:0px; margin-bottom:0px; margin-left:0px; margin-right:0px; -qt-block-indent:0; text-indent:0px;">Так же видно, что есть информация о скорости переключения кадров (фреймрейт) - 50 кадров в сек. А так же видна скорость видеопотока (битрейт), равная 17148 Кбит/сек.</p>
<p style="-qt-paragraph-type:empty; margin-top:0px; margin-bottom:0px; margin-left:0px; margin-right:0px; -qt-block-indent:0; text-indent:0px;"><br /></p></body></html>